HIERARCHY
ROOT pelvis
{
	OFFSET 0.003123 -0.351407 0.012037
	CHANNELS 6 Xposition Yposition Zposition Zrotation Yrotation Xrotation 
	JOINT left_hip
	{
		OFFSET 0.058189 -0.092763 -0.026001
		CHANNELS 3 Zrotation Yrotation Xrotation
		JOINT left_knee
		{
			OFFSET 0.054695 -0.378753 -0.009396
			CHANNELS 3 Zrotation Yrotation Xrotation
			JOINT left_ankle
			{
				OFFSET -0.043453 -0.403059 -0.031876
				CHANNELS 3 Zrotation Yrotation Xrotation
				JOINT left_foot
				{
					OFFSET 0.047257 -0.057997 0.118216
					CHANNELS 3 Zrotation Yrotation Xrotation
					End Site
					{
						OFFSET 0.000000 0.000000 0.000000
					}
				}
			}
		}
	}
	JOINT right_hip
	{
		OFFSET -0.063267 -0.103908 -0.021250
		CHANNELS 3 Zrotation Yrotation Xrotation
		JOINT right_knee
		{
			OFFSET -0.044210 -0.362380 -0.016824
			CHANNELS 3 Zrotation Yrotation Xrotation
			JOINT right_ankle
			{
				OFFSET 0.015417 -0.410728 -0.020192
				CHANNELS 3 Zrotation Yrotation Xrotation
				JOINT right_foot
				{
					OFFSET -0.038812 -0.058328 0.119049
					CHANNELS 3 Zrotation Yrotation Xrotation
					End Site
					{
						OFFSET 0.000000 0.000000 0.000000
					}
				}
			}
		}
	}
	JOINT spine_1
	{
		OFFSET -0.002763 0.109891 -0.027618
		CHANNELS 3 Zrotation Yrotation Xrotation
		JOINT spine_2
		{
			OFFSET 0.009448 0.131853 -0.005940
			CHANNELS 3 Zrotation Yrotation Xrotation
			JOINT spine_3
			{
				OFFSET -0.011330 0.052235 0.028447
				CHANNELS 3 Zrotation Yrotation Xrotation
				JOINT neck
				{
					OFFSET -0.012164 0.165167 -0.031615
					CHANNELS 3 Zrotation Yrotation Xrotation
					JOINT head
					{
						OFFSET 0.024783 0.160452 0.020737
						CHANNELS 3 Zrotation Yrotation Xrotation
						End Site
						{
							OFFSET 0.000000 0.000000 0.000000
						}
					}
				}
				JOINT left_collar
				{
					OFFSET 0.046364 0.084944 -0.007220
					CHANNELS 3 Zrotation Yrotation Xrotation
					JOINT left_shoulder
					{
						OFFSET 0.119239 0.057728 -0.015461
						CHANNELS 3 Zrotation Yrotation Xrotation
						JOINT left_elbow
						{
							OFFSET 0.254123 -0.072151 -0.042459
							CHANNELS 3 Zrotation Yrotation Xrotation
							JOINT left_wrist
							{
								OFFSET 0.251987 0.023221 -0.002472
								CHANNELS 3 Zrotation Yrotation Xrotation
								JOINT left_index_1
								{
									OFFSET 0.101902 -0.008688 0.019351
									CHANNELS 3 Zrotation Yrotation Xrotation
									JOINT left_index_2
									{
										OFFSET 0.030149 -0.011154 0.001151
										CHANNELS 3 Zrotation Yrotation Xrotation
										JOINT left_index_3
										{
											OFFSET 0.006504 -0.021577 -0.002433
											CHANNELS 3 Zrotation Yrotation Xrotation
											End Site
											{
												OFFSET 0.000000 0.000000 0.000000
											}
										}
									}
								}
								JOINT left_middle_1
								{
									OFFSET 0.109398 -0.006328 -0.003981
									CHANNELS 3 Zrotation Yrotation Xrotation
									JOINT left_middle_2
									{
										OFFSET 0.026472 -0.015218 -0.004641
										CHANNELS 3 Zrotation Yrotation Xrotation
										JOINT left_middle_3
										{
											OFFSET 0.005022 -0.023347 -0.001911
											CHANNELS 3 Zrotation Yrotation Xrotation
											End Site
											{
												OFFSET 0.000000 0.000000 0.000000
											}
										}
									}
								}
								JOINT left_pinky_1
								{
									OFFSET 0.084047 -0.014539 -0.043750
									CHANNELS 3 Zrotation Yrotation Xrotation
									JOINT left_pinky_2
									{
										OFFSET 0.012124 -0.014448 -0.005375
										CHANNELS 3 Zrotation Yrotation Xrotation
										JOINT left_pinky_3
										{
											OFFSET 0.003798 -0.018853 0.000167
											CHANNELS 3 Zrotation Yrotation Xrotation
											End Site
											{
												OFFSET 0.000000 0.000000 0.000000
											}
										}
									}
								}
								JOINT left_ring_1
								{
									OFFSET 0.097444 -0.009268 -0.027345
									CHANNELS 3 Zrotation Yrotation Xrotation
									JOINT left_ring_2
									{
										OFFSET 0.023561 -0.016057 -0.001895
										CHANNELS 3 Zrotation Yrotation Xrotation
										JOINT left_ring_3
										{
											OFFSET 0.004257 -0.023548 0.000814
											CHANNELS 3 Zrotation Yrotation Xrotation
											End Site
											{
												OFFSET 0.000000 0.000000 0.000000
											}
										}
									}
								}
								JOINT left_thumb_1
								{
									OFFSET 0.040636 -0.017977 0.025611
									CHANNELS 3 Zrotation Yrotation Xrotation
									JOINT left_thumb_2
									{
										OFFSET 0.021637 -0.017639 0.011623
										CHANNELS 3 Zrotation Yrotation Xrotation
										JOINT left_thumb_3
										{
											OFFSET 0.024002 -0.008356 0.006548
											CHANNELS 3 Zrotation Yrotation Xrotation
											End Site
											{
												OFFSET 0.000000 0.000000 0.000000
											}
										}
									}
								}
							}
						}
					}
				}
				JOINT right_collar
				{
					OFFSET -0.047695 0.084339 -0.013400
					CHANNELS 3 Zrotation Yrotation Xrotation
					JOINT right_shoulder
					{
						OFFSET -0.102578 0.053524 -0.012669
						CHANNELS 3 Zrotation Yrotation Xrotation
						JOINT right_elbow
						{
							OFFSET -0.271150 -0.036492 -0.026467
							CHANNELS 3 Zrotation Yrotation Xrotation
							JOINT right_wrist
							{
								OFFSET -0.249267 -0.004533 -0.015325
								CHANNELS 3 Zrotation Yrotation Xrotation
								JOINT right_index_1
								{
									OFFSET -0.099881 -0.011783 0.019600
									CHANNELS 3 Zrotation Yrotation Xrotation
									JOINT right_index_2
									{
										OFFSET -0.030148 -0.011154 0.001151
										CHANNELS 3 Zrotation Yrotation Xrotation
										JOINT right_index_3
										{
											OFFSET -0.006505 -0.021577 -0.002432
											CHANNELS 3 Zrotation Yrotation Xrotation
											End Site
											{
												OFFSET 0.000000 0.000000 0.000000
											}
										}
									}
								}
								JOINT right_middle_1
								{
									OFFSET -0.107376 -0.009422 -0.003734
									CHANNELS 3 Zrotation Yrotation Xrotation
									JOINT right_middle_2
									{
										OFFSET -0.026472 -0.015218 -0.004641
										CHANNELS 3 Zrotation Yrotation Xrotation
										JOINT right_middle_3
										{
											OFFSET -0.005022 -0.023347 -0.001911
											CHANNELS 3 Zrotation Yrotation Xrotation
											End Site
											{
												OFFSET 0.000000 0.000000 0.000000
											}
										}
									}
								}
								JOINT right_pinky_1
								{
									OFFSET -0.082027 -0.017634 -0.043503
									CHANNELS 3 Zrotation Yrotation Xrotation
									JOINT right_pinky_2
									{
										OFFSET -0.012123 -0.014448 -0.005374
										CHANNELS 3 Zrotation Yrotation Xrotation
										JOINT right_pinky_3
										{
											OFFSET -0.003798 -0.018852 0.000167
											CHANNELS 3 Zrotation Yrotation Xrotation
											End Site
											{
												OFFSET 0.000000 0.000000 0.000000
											}
										}
									}
								}
								JOINT right_ring_1
								{
									OFFSET -0.095423 -0.012362 -0.027099
									CHANNELS 3 Zrotation Yrotation Xrotation
									JOINT right_ring_2
									{
										OFFSET -0.023561 -0.016057 -0.001895
										CHANNELS 3 Zrotation Yrotation Xrotation
										JOINT right_ring_3
										{
											OFFSET -0.004257 -0.023548 0.000816
											CHANNELS 3 Zrotation Yrotation Xrotation
											End Site
											{
												OFFSET 0.000000 0.000000 0.000000
											}
										}
									}
								}
								JOINT right_thumb_1
								{
									OFFSET -0.038613 -0.021074 0.025861
									CHANNELS 3 Zrotation Yrotation Xrotation
									JOINT right_thumb_2
									{
										OFFSET -0.021636 -0.017639 0.011623
										CHANNELS 3 Zrotation Yrotation Xrotation
										JOINT right_thumb_3
										{
											OFFSET -0.024004 -0.008353 0.006547
											CHANNELS 3 Zrotation Yrotation Xrotation
											End Site
											{
												OFFSET 0.000000 0.000000 0.000000
											}
										}
									}
								}
							}
						}
					}
				}
			}
		}
	}
}
MOTION
Frames: 5
Frame Time: 0.050000
0.078703 0.944486 -0.106323 -4.477626 -12.170846 -13.426928 2.797853 1.864564 13.075085 -1.977858 -0.660850 11.771856 -8.064471 -12.532696 4.955975 0.000000 0.000000 0.000000 -5.334523 1.256207 -11.162790 5.931936 0.371606 27.846736 1.527723 7.321859 -4.322540 0.000000 0.000000 0.000000 -0.311386 -1.360637 19.944343 -8.185836 -2.024638 -20.607195 9.868681 -2.178049 27.001468 -2.393111 0.356014 0.393938 0.000000 0.000000 0.000000 8.437018 3.050445 -1.351465 -46.508292 -18.311735 -3.788540 84.503827 -44.735364 -30.253637 22.691728 -1.667802 -27.583517 23.983484 28.542556 19.233039 84.521621 -1.130104 -40.560675 0.000000 0.000000 0.000000 9.711015 -21.800341 -11.930111 82.513040 2.316199 -39.108321 0.000000 0.000000 0.000000 52.364765 -37.571008 -80.766347 39.359171 -1.128984 8.167370 0.000000 0.000000 0.000000 27.454088 -44.193094 -40.168501 65.570590 4.364269 -11.019915 0.000000 0.000000 0.000000 88.347660 26.459126 47.164470 -31.254326 -16.371667 7.191145 0.000000 0.000000 0.000000 -11.075912 0.148611 1.981465 47.747014 29.598958 -0.229220 -106.399321 33.647824 -39.697410 -36.661196 6.451310 3.964985 -18.758360 -42.162595 21.498292 -102.468695 6.388319 -4.424294 0.000000 0.000000 0.000000 -31.393636 18.771218 -12.967227 -159.603352 -36.955089 -22.278319 0.000000 0.000000 0.000000 -70.110882 21.742700 -89.722682 -41.141566 0.370015 4.442294 0.000000 0.000000 0.000000 -61.536929 34.514182 -64.502502 -80.950920 -16.330439 -23.052154 0.000000 0.000000 0.000000 -89.226096 -37.076928 63.971913 34.443027 15.841502 7.837520 0.000000 0.000000 0.000000 
0.074934 0.945614 -0.101044 -4.263110 -12.952540 -13.502854 2.687043 2.059490 14.134716 -2.116135 -0.574738 11.161675 -7.363523 -11.655413 4.467151 0.000000 0.000000 0.000000 -5.876271 1.175384 -10.334630 4.686964 0.490913 23.458980 5.604920 10.653896 1.042908 0.000000 0.000000 0.000000 -0.067449 -1.359854 19.148273 -8.353036 -1.852297 -20.012363 10.004882 -1.848839 27.201105 -2.665862 0.404110 0.478335 0.000000 0.000000 0.000000 8.586105 3.292921 -1.465899 -45.951183 -20.517660 -3.442804 74.513299 -38.417267 -20.650528 21.648099 -0.517107 -30.378496 26.722698 26.192816 19.160091 85.011627 -2.829953 -40.400943 0.000000 0.000000 0.000000 12.746195 -24.636745 -13.489728 77.337038 -0.426896 -35.538383 0.000000 0.000000 0.000000 51.480327 -38.228686 -78.717859 38.666719 -0.962182 6.941529 0.000000 0.000000 0.000000 25.195973 -45.404648 -38.885622 64.017723 4.901297 -13.574724 0.000000 0.000000 0.000000 88.157517 24.943163 44.964449 -30.945285 -15.735937 7.229894 0.000000 0.000000 0.000000 -11.359674 -0.593722 1.743003 45.773332 31.523770 0.003273 -95.341334 27.924312 -26.525966 -35.355999 4.661615 4.683147 -15.929898 -42.194763 20.492493 -102.578967 9.797783 0.429300 0.000000 0.000000 0.000000 -30.251622 17.794857 -11.812300 -159.908855 -15.747928 -11.807761 0.000000 0.000000 0.000000 -68.765644 22.558181 -88.469364 -40.493251 0.273807 3.972142 0.000000 0.000000 0.000000 -61.138563 35.009491 -64.880873 -80.496611 -13.577971 -18.227542 0.000000 0.000000 0.000000 -86.526027 -37.333312 61.646938 31.894494 11.867620 7.213685 0.000000 0.000000 0.000000 
0.069987 0.944647 -0.098404 -4.044231 -14.248196 -13.527344 2.764613 2.171756 14.595176 -2.499288 -0.458688 11.158578 -6.614266 -10.811866 3.819524 0.000000 0.000000 0.000000 -5.759072 1.172514 -10.022025 3.028072 0.658881 19.620851 10.206023 13.818291 6.762441 0.000000 0.000000 0.000000 0.028478 -1.353937 19.081660 -7.908562 -2.352163 -21.088637 9.765485 -0.908016 29.135723 -2.950041 0.548186 -0.267317 0.000000 0.000000 0.000000 8.220546 4.177844 -1.875687 -44.846081 -22.371798 -3.347679 62.386629 -33.845112 -13.339248 18.578964 3.233411 -36.792863 29.066103 24.269065 20.053652 81.083341 -5.117672 -45.126632 0.000000 0.000000 0.000000 8.906300 -25.105634 -12.812566 71.261132 -2.582068 -39.272577 0.000000 0.000000 0.000000 44.825257 -41.746951 -75.317980 37.021936 -0.709562 5.691724 0.000000 0.000000 0.000000 17.481899 -45.543658 -33.063422 60.904497 4.028440 -14.259594 0.000000 0.000000 0.000000 89.350811 21.376625 42.847553 -32.803058 -16.215701 8.203886 0.000000 0.000000 0.000000 -11.212127 0.046881 1.954177 43.328756 32.342214 -0.196463 -84.077261 24.134945 -18.428959 -31.337758 4.059154 3.378966 -19.693079 -42.568376 22.679382 -96.948171 12.854904 5.394535 0.000000 0.000000 0.000000 -32.207746 16.899758 -11.102125 -156.134609 -2.509107 -6.561962 0.000000 0.000000 0.000000 -68.374559 23.175486 -89.343197 -40.058443 0.501096 5.519768 0.000000 0.000000 0.000000 -60.356524 34.955654 -63.259150 -83.654232 -12.871046 -15.470338 0.000000 0.000000 0.000000 -88.728403 -36.497475 62.965490 32.175708 13.625098 7.193536 0.000000 0.000000 0.000000 
0.064334 0.940940 -0.093124 -3.607850 -14.310693 -14.007325 2.658337 2.221859 14.800427 -2.491132 -0.518829 12.268043 -6.449766 -11.238245 2.972612 0.000000 0.000000 0.000000 -6.396614 1.067340 -9.049336 2.443584 0.598886 17.098486 13.167099 15.981122 10.020543 0.000000 0.000000 0.000000 -0.292103 -1.277489 17.921706 -7.935355 -1.710029 -18.657358 9.935034 -1.123578 28.538472 -3.124452 0.609474 -0.541446 0.000000 0.000000 0.000000 8.144212 3.294881 -1.518586 -44.099985 -22.505740 -3.351049 49.710918 -30.085192 -8.099624 15.995235 4.953562 -34.921760 29.005741 27.144979 22.670107 79.261338 -4.621262 -41.732778 0.000000 0.000000 0.000000 7.228638 -23.098734 -11.839062 75.775677 -3.672399 -36.495071 0.000000 0.000000 0.000000 46.301537 -41.199446 -75.456726 37.006071 -0.885352 7.289880 0.000000 0.000000 0.000000 17.121314 -44.016979 -32.116507 62.275768 3.495391 -13.346041 0.000000 0.000000 0.000000 90.560022 20.690396 45.494250 -33.539274 -16.328936 8.560020 0.000000 0.000000 0.000000 -11.025975 0.010787 1.937029 40.656488 32.967297 -0.388065 -68.945643 22.517885 -13.196844 -29.048934 0.428063 -19.225696 -24.261282 -36.367121 24.410770 -103.435886 6.932020 -21.039892 0.000000 0.000000 0.000000 -21.861416 25.436007 -14.939787 -121.234808 -14.470006 -42.097347 0.000000 0.000000 0.000000 -58.954769 34.515937 -86.001043 -38.421976 0.667556 6.634192 0.000000 0.000000 0.000000 -44.578716 46.321248 -55.218655 -73.240066 -9.373097 -16.804677 0.000000 0.000000 0.000000 -88.267597 -29.244168 51.237362 30.280187 10.543779 6.987707 0.000000 0.000000 0.000000 
0.059623 0.935460 -0.090485 -3.248100 -14.387857 -15.435275 2.207970 2.367432 15.319108 -1.642107 -0.839465 14.427247 -5.981186 -11.931480 1.160985 0.000000 0.000000 0.000000 -7.239083 0.958322 -7.984776 3.277239 0.447088 16.865819 14.211106 16.853090 11.014941 0.000000 0.000000 0.000000 -0.442542 -1.335653 20.158307 -7.880167 -1.849777 -19.103156 10.210721 -0.906664 28.325899 -3.231948 0.556558 0.216946 0.000000 0.000000 0.000000 7.928482 2.377700 -1.132102 -44.115790 -22.072105 -3.490073 38.826011 -27.627257 -4.893246 11.744869 6.780957 -43.544097 28.755919 26.355888 23.514718 69.722357 -6.856531 -42.836759 0.000000 0.000000 0.000000 2.293331 -17.018325 -8.505505 63.765309 -6.356104 -37.813991 0.000000 0.000000 0.000000 38.990517 -44.683894 -70.733726 36.813803 -1.078169 8.357300 0.000000 0.000000 0.000000 7.759387 -43.528262 -25.281822 58.963602 2.109310 -11.752182 0.000000 0.000000 0.000000 89.973455 16.685725 40.055290 -33.669596 -14.289794 9.018246 0.000000 0.000000 0.000000 -11.190030 0.840286 2.271540 37.696253 31.528686 -0.948876 -53.561567 23.264357 -10.343165 -21.183160 -1.741233 -31.938875 -25.401134 -32.205317 24.311196 -96.271888 5.166661 -36.220691 0.000000 0.000000 0.000000 -14.473237 25.041523 -13.637803 -100.739661 0.149808 -41.992568 0.000000 0.000000 0.000000 -49.977636 39.820689 -79.199899 -37.867647 0.772627 6.329552 0.000000 0.000000 0.000000 -29.850470 47.217033 -42.719736 -65.489287 -5.985018 -16.080187 0.000000 0.000000 0.000000 -85.635641 -25.495160 41.266411 29.114887 7.262206 7.077484 0.000000 0.000000 0.000000 
